<?xml version="1.0" standalone="no"?>
<!DOCTYPE svg PUBLIC "-//W3C//DTD SVG 20010904//EN"
 "http://www.w3.org/TR/2001/REC-SVG-20010904/DTD/svg10.dtd">
<svg version="1.0" xmlns="http://www.w3.org/2000/svg"
 width="351.000000pt" height="351.000000pt" viewBox="0 0 351.000000 351.000000"
 preserveAspectRatio="xMidYMid meet">
<metadata>
Created by potrace 1.11, written by Peter Selinger 2001-2013
</metadata>
<g transform="translate(0.000000,351.000000) scale(0.100000,-0.100000)"
fill="#000000" stroke="none">
<path d="M807 2582 l-807 -807 808 -808 807 -807 65 65 c35 36 69 65 74 65 6
0 39 -28 73 -62 l63 -63 803 803 802 802 -805 805 -805 805 -65 -65 -65 -65
-70 70 -70 70 -808 -808z m1463 -198 c71 -41 74 -52 81 -287 4 -117 7 -213 8
-214 10 -20 52 -43 78 -43 l33 0 0 -57 0 -58 -47 -15 c-69 -22 -73 -33 -73
-249 0 -166 -2 -189 -21 -227 -27 -58 -81 -84 -172 -84 l-67 0 0 60 0 60 48 0
c81 0 80 -1 84 215 4 201 9 225 57 269 l21 19 -24 26 c-48 52 -51 66 -54 266
-4 218 -3 215 -89 215 l-53 0 0 66 0 67 79 -5 c52 -3 89 -11 111 -24z m-1144
6 c23 0 24 -4 24 -60 l0 -60 -54 0 c-83 0 -86 -7 -86 -220 0 -189 -11 -239
-60 -273 l-21 -15 21 -15 c11 -8 30 -32 40 -53 18 -34 20 -59 20 -216 0 -165
1 -179 20 -198 15 -15 33 -20 70 -20 l50 0 0 -60 0 -60 -72 0 c-87 0 -140 25
-172 80 -19 31 -22 57 -26 235 -3 110 -9 207 -13 216 -10 20 -50 39 -82 39
-24 0 -25 3 -25 59 l0 58 39 7 c26 4 47 15 60 32 19 25 21 40 21 203 0 97 5
193 10 213 23 81 84 122 169 113 24 -3 54 -5 67 -5z m354 -130 c18 -18 20 -33
20 -175 l0 -155 -70 0 -70 0 0 150 c0 147 1 152 25 175 29 30 68 32 95 5z
m361 1 c23 -19 24 -23 24 -173 l0 -153 -73 -3 -73 -3 3 156 c3 151 4 158 27
176 30 24 62 24 92 0z m84 -591 c-1 -170 -14 -224 -74 -292 -58 -65 -129 -100
-215 -106 -125 -7 -231 50 -291 159 -29 53 -30 57 -33 222 l-4 167 309 -2 308
-3 0 -145z"/>
</g>
</svg>
